<?xml version="1.0" encoding="UTF-8"?>
<svg id="Layer_1" data-name="Layer 1" xmlns="http://www.w3.org/2000/svg" viewBox="0 0 604 337.09">
  <defs>
    <style>
      .cls-1, .cls-2, .cls-3, .cls-4 {
        stroke-miterlimit: 10;
      }

      .cls-1, .cls-3 {
        stroke: #231f20;
      }

      .cls-1, .cls-4 {
        fill: none;
      }

      .cls-2, .cls-3 {
        fill: #fff;
      }

      .cls-2, .cls-4 {
        stroke: #808285;
      }
    </style>
  </defs>
  <polygon class="cls-3" points="129.22 11.28 90.03 11.28 53.83 26.27 26.12 53.98 11.13 90.18 11.13 129.37 26.12 165.57 53.83 193.28 90.03 208.28 129.22 208.28 165.42 193.28 193.13 165.57 208.13 129.37 208.13 90.18 193.13 53.98 165.42 26.27 129.22 11.28"/>
  <g>
    <rect class="cls-2" x=".5" y="232.59" width="37.7" height="104"/>
    <rect class="cls-2" x="38.2" y="232.59" width="37.7" height="104"/>
    <rect class="cls-2" x="75.65" y="232.59" width="37.7" height="104"/>
    <rect class="cls-2" x="113.35" y="232.59" width="37.7" height="104"/>
    <rect class="cls-2" x="151.05" y="232.59" width="37.7" height="104"/>
    <rect class="cls-2" x="188.99" y="232.59" width="37.7" height="104"/>
    <rect class="cls-2" x="226.44" y="232.59" width="37.7" height="104"/>
    <rect class="cls-2" x="264.14" y="232.59" width="37.7" height="104"/>
    <rect class="cls-2" x="301.84" y="232.59" width="37.7" height="104"/>
    <rect class="cls-2" x="339.54" y="232.59" width="37.7" height="104"/>
    <rect class="cls-2" x="376.99" y="232.59" width="37.7" height="104"/>
    <rect class="cls-2" x="414.69" y="232.59" width="37.7" height="104"/>
    <rect class="cls-2" x="452.39" y="232.59" width="37.7" height="104"/>
    <rect class="cls-2" x="490.09" y="232.59" width="37.7" height="104"/>
    <rect class="cls-2" x="527.79" y="232.59" width="37.7" height="104"/>
    <rect class="cls-2" x="565.49" y="232.59" width="37.7" height="104"/>
    <rect class="cls-1" x=".5" y="232.59" width="603" height="104"/>
  </g>
  <g>
    <rect class="cls-4" x="235.65" y=".5" width="22.5" height="104"/>
    <rect class="cls-4" x="258.15" y=".5" width="22.5" height="104"/>
    <rect class="cls-4" x="280.95" y=".5" width="22.5" height="104"/>
    <rect class="cls-4" x="303.45" y=".5" width="22.5" height="104"/>
    <rect class="cls-4" x="326.25" y=".5" width="22.5" height="104"/>
    <rect class="cls-4" x="348.5" y=".5" width="22.5" height="104"/>
    <rect class="cls-4" x="371.3" y=".5" width="22.5" height="104"/>
    <rect class="cls-4" x="393.8" y=".5" width="22.5" height="104"/>
    <rect class="cls-4" x="416.6" y=".5" width="22.5" height="104"/>
    <rect class="cls-4" x="439.1" y=".5" width="22.5" height="104"/>
    <rect class="cls-4" x="461.9" y=".5" width="22.5" height="104"/>
    <rect class="cls-4" x="484.4" y=".5" width="22.5" height="104"/>
    <rect class="cls-4" x="507.2" y=".5" width="22.5" height="104"/>
    <rect class="cls-4" x="529.7" y=".5" width="22.5" height="104"/>
    <rect class="cls-4" x="552.2" y=".5" width="22.5" height="104"/>
    <rect class="cls-4" x="575" y=".5" width="22.5" height="104"/>
    <rect class="cls-1" x="235.65" y=".5" width="361.85" height="104"/>
  </g>
  <g>
    <rect class="cls-4" x="385.5" y="116.48" width="53" height="104"/>
    <rect class="cls-4" x="438.5" y="116.48" width="53" height="104"/>
    <rect class="cls-4" x="491.5" y="116.61" width="53" height="104"/>
    <rect class="cls-4" x="544.5" y="116.48" width="53" height="104"/>
    <rect class="cls-1" x="385.5" y="116.48" width="212" height="104"/>
  </g>
</svg>